<?xml version="1.0" encoding="UTF-8"?> <svg xmlns="http://www.w3.org/2000/svg" xmlns:xlink="http://www.w3.org/1999/xlink" width="343.225" height="109.453" viewBox="0 0 343.225 109.453"><defs><linearGradient id="linear-gradient" x1="0.806" y1="0.844" x2="0.242" y2="0.216" gradientUnits="objectBoundingBox"><stop offset="0" stop-color="#8120f8"></stop><stop offset="1" stop-color="#536dfe"></stop></linearGradient></defs><g id="Group_7" data-name="Group 7" transform="translate(-200 -154)"><g id="Group_6" data-name="Group 6" transform="translate(55 -2)"><path id="Path_8" data-name="Path 8" d="M1021.227,289.8H966.5V379h54.727a35.025,35.025,0,1,0,0-70.05H986.2V359.3h35.572a14.776,14.776,0,0,0,0-29.552H1006.45V339.6h15.324a4.925,4.925,0,0,1,0,9.851H996.6V319.9h25.174a24.627,24.627,0,1,1,0,49.254H976.9v-69.5h44.875a44.876,44.876,0,0,1,0,89.751H986.749v9.851h35.025a54.887,54.887,0,0,0,54.726-54.726C1076.5,314.427,1051.326,289.8,1021.227,289.8Z" transform="translate(-821.5 -133.8)" fill="url(#linear-gradient)"></path><path id="Path_25" data-name="Path 25" d="M52.105,0V-62.815H40.8v19.89C37.485-46.58,32.045-48.79,26.1-48.79,12.92-48.79,2.55-37.74,2.55-23.63,2.55-9.69,12.835,1.105,26.18,1.105c6.375,0,11.05-2.125,15.555-7.225V0ZM41.65-23.8c0,8.16-6.035,14.535-13.685,14.535C20.06-9.265,13.94-15.81,13.94-24.14c0-7.99,6.035-14.28,13.77-14.28C35.615-38.42,41.65-32.045,41.65-23.8Zm61.88.935c0-14.62-10.285-25.33-24.31-25.33A24.634,24.634,0,0,0,54.4-23.375c0,13.77,11.135,24.48,25.5,24.48,9.52,0,19.3-5.355,22.44-15.045H90.015c-2.89,3.4-5.695,4.675-10.37,4.675C72.93-9.265,68-12.835,66.64-18.53h36.465A18.307,18.307,0,0,0,103.53-22.865ZM92.4-28.475H66.3c1.785-6.035,6.375-9.35,13.09-9.35C86.36-37.825,90.95-34.51,92.4-28.475Zm61.285,5.61c0-14.62-10.285-25.33-24.31-25.33a24.634,24.634,0,0,0-24.82,24.82c0,13.77,11.135,24.48,25.5,24.48,9.52,0,19.295-5.355,22.44-15.045H140.165c-2.89,3.4-5.7,4.675-10.37,4.675-6.715,0-11.645-3.57-13-9.265h36.465A18.307,18.307,0,0,0,153.68-22.865Zm-11.135-5.61h-26.1c1.785-6.035,6.375-9.35,13.09-9.35C136.51-37.825,141.1-34.51,142.545-28.475Zm63.495,4.76c0-14.195-9.86-24.48-23.46-24.48-6.375,0-11.815,2.38-15.47,6.63V-47.09H156.74V15.725h11.305V-4.42a20.139,20.139,0,0,0,14.45,5.525C196.1,1.105,206.04-9.435,206.04-23.715Zm-11.39.255c0,7.99-5.865,14.2-13.345,14.2-7.99,0-13.94-6.12-13.94-14.365,0-8.075,5.95-14.195,13.77-14.195C188.785-37.825,194.65-31.62,194.65-23.46Z" transform="translate(267 233)"></path><path id="Shape_1" data-name="Shape 1" d="M4145.344,483.3a7.637,7.637,0,0,1-3.038,3.043,8.259,8.259,0,0,1-8.177,0,7.656,7.656,0,0,1-3.044-3.043,8.221,8.221,0,0,1,.017-8.2,7.583,7.583,0,0,1,3.076-3.038,8.213,8.213,0,0,1,8.079,0,7.554,7.554,0,0,1,3.07,3.038,8.249,8.249,0,0,1,.017,8.2Zm-1.2-7.518a6.315,6.315,0,0,0-2.564-2.536,6.832,6.832,0,0,0-6.733,0,6.364,6.364,0,0,0-2.563,2.536,6.828,6.828,0,0,0-.017,6.837,6.462,6.462,0,0,0,2.542,2.537,6.846,6.846,0,0,0,6.815,0,6.422,6.422,0,0,0,2.536-2.537,6.861,6.861,0,0,0-.016-6.837Zm-3.264,5.559a16.441,16.441,0,0,0,.7,2.523h-1.228a11.244,11.244,0,0,1-.6-2.194c-.274-1.269-.778-1.746-1.855-1.786h-1.118v3.98h-1.187v-9.052a12.345,12.345,0,0,1,2.277-.2,3.789,3.789,0,0,1,2.671.763,2.288,2.288,0,0,1,.723,1.745,2.423,2.423,0,0,1-1.731,2.331v.041A2.34,2.34,0,0,1,4140.882,481.341Zm-.816-4.1c0-1.185-.859-1.7-2.114-1.7a4.836,4.836,0,0,0-1.172.111v3.339h1.213C4139.261,478.984,4140.065,478.287,4140.065,477.238Z" transform="translate(-3658.202 -298.404)"></path></g></g></svg> 